<svg width="18" height="18" viewBox="0 0 18 18" fill="none" xmlns="http://www.w3.org/2000/svg">
<g opacity="0.7">
<path fill-rule="evenodd" clip-rule="evenodd" d="M14.5075 2.1167H3.6592C2.80355 2.1167 2.10938 2.81034 2.10938 3.66653V14.5148C2.10938 15.3704 2.80302 16.0646 3.6592 16.0646H14.5075C15.3631 16.0646 16.0573 15.371 16.0573 14.5148V3.66653C16.0573 2.81088 15.3637 2.1167 14.5075 2.1167ZM6.32647 14.1275H4.24663V7.41154H6.32647V14.1275ZM5.27663 6.53229C4.59693 6.53229 4.04653 5.97759 4.04653 5.29307C4.04653 4.60855 4.59693 4.05385 5.27663 4.05385C5.95632 4.05385 6.50619 4.60855 6.50619 5.29307C6.50619 5.97759 5.95578 6.53229 5.27663 6.53229ZM14.1201 14.1275H12.0505V10.6024C12.0505 9.6357 11.683 9.09549 10.918 9.09549C10.086 9.09549 9.65091 9.65769 9.65091 10.6024V14.1275H7.65635V7.41154H9.65091V8.31601C9.65091 8.31601 10.2507 7.20608 11.676 7.20608C13.1014 7.20608 14.1201 8.07568 14.1201 9.87496V14.1275Z" fill="#261807"/>
</g>
</svg>
