<svg width="18" height="18" viewBox="0 0 18 18" fill="none" xmlns="http://www.w3.org/2000/svg">
<g opacity="0.7" clip-path="url(#clip0_22108_961)">
<path d="M9.76861 1.05931C10.6468 1.0459 11.5185 1.05287 12.3897 1.0459C12.4187 2.13545 12.8608 3.11609 13.5641 3.84246L13.563 3.84138C14.3199 4.52322 15.3049 4.96526 16.3907 5.04037L16.4057 5.04144V7.74304C15.38 7.71729 14.4154 7.48072 13.5458 7.07408L13.5898 7.09232C13.1692 6.89008 12.8136 6.68247 12.4756 6.45072L12.5035 6.46896C12.497 8.42649 12.5099 10.384 12.4901 12.3346C12.4348 13.3287 12.1044 14.2353 11.5743 14.9922L11.5851 14.9756C10.6988 16.2448 9.26327 17.078 7.63083 17.1273H7.62332C7.55733 17.1305 7.47955 17.1321 7.40122 17.1321C6.47315 17.1321 5.6057 16.8736 4.86646 16.4246L4.88792 16.4369C3.54248 15.6274 2.61441 14.2422 2.44274 12.6313L2.44059 12.6093C2.42718 12.274 2.42075 11.9387 2.43416 11.6104C2.69702 9.04664 4.845 7.06335 7.45594 7.06335C7.74939 7.06335 8.03693 7.08857 8.31642 7.13631L8.28638 7.13202C8.29979 8.12393 8.25956 9.11638 8.25956 10.1083C8.03264 10.0262 7.77084 9.97847 7.49779 9.97847C6.49568 9.97847 5.64325 10.619 5.32781 11.5133L5.32298 11.5294C5.25164 11.7584 5.21033 12.0218 5.21033 12.2944C5.21033 12.4049 5.2173 12.5143 5.23018 12.6216L5.2291 12.6087C5.40721 13.7063 6.34816 14.5346 7.48277 14.5346C7.51549 14.5346 7.54768 14.5341 7.57986 14.5325H7.57504C8.35988 14.5089 9.04118 14.0867 9.42635 13.4628L9.43172 13.4531C9.57495 13.2535 9.67312 13.0121 9.70585 12.7498L9.70639 12.7423C9.77344 11.5422 9.74662 10.3492 9.75306 9.1491C9.7595 6.4475 9.74662 3.75233 9.76647 1.0577L9.76861 1.05931Z" fill="#261807"/>
</g>
<defs>
<clipPath id="clip0_22108_961">
<rect width="17.1667" height="17.1667" fill="white" transform="translate(0.833374 0.507324)"/>
</clipPath>
</defs>
</svg>
