<svg width="18" height="18" viewBox="0 0 18 18" fill="none" xmlns="http://www.w3.org/2000/svg">
<g opacity="0.7">
<path d="M5.80633 1.63271C5.007 1.67026 4.46142 1.79793 3.98451 1.98516C3.49097 2.17775 3.07253 2.43578 2.65571 2.85368C2.23941 3.27159 1.98299 3.69056 1.79201 4.18464C1.60693 4.66262 1.48194 5.20874 1.44653 6.0086C1.41112 6.80792 1.40361 7.06542 1.40737 9.1045C1.41112 11.1436 1.42024 11.3995 1.45887 12.2009C1.49696 12.9997 1.6241 13.5453 1.81132 14.0227C2.00391 14.5163 2.26195 14.9347 2.67985 15.3516C3.09775 15.7678 3.51618 16.0237 4.01187 16.2153C4.48932 16.3998 5.03597 16.5259 5.83529 16.5607C6.63462 16.5956 6.89212 16.6036 8.9312 16.5999C10.9703 16.5961 11.2267 16.587 12.0282 16.5489C12.8296 16.5108 13.372 16.3832 13.8494 16.1965C14.343 16.0034 14.762 15.7459 15.1783 15.3274C15.5945 14.909 15.851 14.49 16.0414 13.9954C16.2265 13.5179 16.352 12.9713 16.3869 12.1725C16.4218 11.371 16.4303 11.1151 16.4261 9.07553C16.4218 7.03591 16.4132 6.78056 16.3751 5.97963C16.337 5.17869 16.2099 4.63473 16.0226 4.15728C15.8295 3.66374 15.572 3.2453 15.1541 2.82847C14.7362 2.41164 14.3167 2.15575 13.8221 1.96531C13.3441 1.78023 12.798 1.65416 11.9987 1.61983C11.1993 1.5855 10.9418 1.57638 8.90223 1.58013C6.86261 1.58389 6.60726 1.59301 5.80633 1.63163M5.8943 15.2089C5.16204 15.1772 4.76452 15.0554 4.49951 14.9535C4.14867 14.8183 3.89868 14.6547 3.63474 14.3934C3.3708 14.1322 3.20826 13.8811 3.07146 13.5308C2.96846 13.2658 2.84454 12.8688 2.81021 12.1366C2.77319 11.3453 2.76514 11.1076 2.76085 9.10235C2.75656 7.09707 2.76407 6.85996 2.79894 6.06814C2.83005 5.33641 2.95237 4.93836 3.05429 4.67335C3.18948 4.32197 3.35257 4.07252 3.61436 3.80858C3.87615 3.54464 4.12667 3.3821 4.47698 3.2453C4.74146 3.14176 5.13897 3.01891 5.8707 2.98404C6.66251 2.94649 6.90016 2.93898 8.90491 2.93469C10.9097 2.9304 11.1478 2.93791 11.9402 2.97278C12.6719 3.00443 13.07 3.12567 13.3344 3.22813C13.6853 3.36332 13.9353 3.52587 14.1992 3.78819C14.4632 4.05052 14.6257 4.29998 14.763 4.65136C14.8666 4.91529 14.9894 5.31227 15.0238 6.04454C15.0613 6.83635 15.0699 7.074 15.0736 9.07875C15.0774 11.0835 15.0704 11.3217 15.0356 12.113C15.0034 12.8452 14.8821 13.2427 14.7802 13.5083C14.645 13.8591 14.4819 14.1091 14.2196 14.3731C13.9573 14.637 13.7073 14.7995 13.357 14.9363C13.0925 15.0393 12.695 15.1627 11.9638 15.1976C11.172 15.2346 10.9343 15.2427 8.92905 15.2469C6.92377 15.2512 6.68612 15.2432 5.8943 15.2089ZM12.0169 5.07623C12.018 5.57406 12.4219 5.97694 12.9198 5.97587C13.4176 5.9748 13.8205 5.57085 13.8194 5.07301C13.8183 4.57518 13.4144 4.1723 12.9165 4.17337C12.4187 4.17444 12.0164 4.5784 12.0169 5.07623ZM5.06065 9.09752C5.06494 11.2273 6.79448 12.9504 8.92422 12.9461C11.054 12.9418 12.7776 11.2122 12.7738 9.0825C12.7696 6.95276 11.0395 5.22912 8.90974 5.23341C6.78 5.23771 5.05636 6.96778 5.06065 9.09752ZM6.41413 9.09484C6.41145 7.71239 7.52997 6.58904 8.91296 6.58636C10.2954 6.58368 11.4188 7.70219 11.4214 9.08518C11.4241 10.4676 10.3056 11.591 8.92261 11.5937C7.54016 11.5963 6.41682 10.4784 6.41413 9.09591" fill="#261807"/>
</g>
</svg>
