<svg width="19" height="14" viewBox="0 0 19 14" fill="none" xmlns="http://www.w3.org/2000/svg">
<path d="M17.9571 2.73032C17.7501 1.95069 17.1403 1.33701 16.3657 1.12832C14.9617 0.749756 9.33337 0.749756 9.33337 0.749756C9.33337 0.749756 3.70444 0.749756 2.301 1.12832C1.52644 1.33644 0.916687 1.95069 0.709687 2.73032C0.333374 4.14332 0.333374 7.09082 0.333374 7.09082C0.333374 7.09082 0.333374 10.0389 0.709687 11.4513C0.916687 12.2309 1.52644 12.8446 2.301 13.0528C3.705 13.4313 9.33337 13.4313 9.33337 13.4313C9.33337 13.4313 14.9623 13.4313 16.3657 13.0528C17.1403 12.8446 17.7501 12.2304 17.9571 11.4513C18.3334 10.0383 18.3334 7.09082 18.3334 7.09082C18.3334 7.09082 18.3334 4.14332 17.9571 2.73032ZM7.49231 9.76719V4.41444L12.1971 7.09082L7.49231 9.76719Z" fill="#261807"/>
</svg>
